<svg width="139" height="148" viewBox="0 0 139 148" fill="none" xmlns="http://www.w3.org/2000/svg">
    <path d="M69.4986 18.6125C47.6437 18.6125 27.0935 27.6852 11.6268 44.1626L2.17627 54.242L14.0593 66.9129L23.5099 56.832C35.7969 43.7417 52.1294 36.5329 69.4986 36.5329C86.8664 36.5329 103.208 43.7324 115.486 56.832L117.902 59.422C121.571 60.2468 125.065 61.5788 128.355 63.2731L136.819 54.242L127.369 44.1626C111.902 27.6852 91.3607 18.6125 69.4986 18.6125ZM69.4986 54.4532C56.6136 54.4532 44.4989 59.7904 35.3929 69.5029L25.9424 79.5824L37.8254 92.2533L47.276 82.1724C53.2095 75.8469 61.1079 72.3735 69.4986 72.3735C71.5344 72.3735 73.5368 72.6001 75.4973 73.0025C80.3522 67.7516 86.3118 63.7078 92.9679 61.2072C85.8499 56.9337 77.8878 54.4532 69.4986 54.4532ZM107.366 76.2755C91.1001 76.2755 77.9124 90.3154 77.9124 107.636C77.9124 124.955 91.1001 138.995 107.366 138.995C123.633 138.995 136.819 124.955 136.819 107.636C136.819 90.3154 123.633 76.2755 107.366 76.2755ZM103.158 89.7157H111.574V107.636H103.158V89.7157ZM64.8305 91.168C62.7687 91.9111 60.8097 93.0874 59.159 94.8433L49.7085 104.923L63.581 119.729C62.6644 115.858 62.1186 111.811 62.1186 107.636C62.1186 101.847 63.1046 96.3202 64.8305 91.168ZM103.158 116.596H111.574V125.556H103.158V116.596Z" fill="#FCB332"/>
    </svg>
    